<?xml version="1.0" standalone="no"?>
<!DOCTYPE svg PUBLIC "-//W3C//DTD SVG 20010904//EN"
 "http://www.w3.org/TR/2001/REC-SVG-20010904/DTD/svg10.dtd">
<svg version="1.0" xmlns="http://www.w3.org/2000/svg"
 width="200.000000pt" height="200.000000pt" viewBox="0 0 200.000000 200.000000"
 preserveAspectRatio="xMidYMid meet">
<metadata>
Created by potrace 1.16, written by Peter Selinger 2001-2019
</metadata>
<g transform="translate(0.000000,200.000000) scale(0.008333,-0.009896)"
fill="#000000" stroke="none">
<path d="M11340 20203 c-199 -18 -428 -60 -1005 -183 -500 -107 -729 -135
-1037 -128 -181 5 -218 3 -339 -18 -168 -29 -360 -74 -679 -159 -616 -164
-888 -224 -1125 -246 -108 -10 -158 -21 -300 -65 -93 -29 -267 -81 -385 -114
-632 -179 -816 -237 -1062 -336 -87 -34 -229 -100 -315 -145 -87 -45 -207
-107 -268 -136 -201 -100 -258 -144 -532 -419 -139 -138 -281 -273 -315 -299
-84 -63 -184 -112 -276 -136 -81 -20 -175 -71 -467 -252 -492 -305 -864 -605
-1139 -917 -139 -158 -184 -219 -244 -332 -58 -110 -139 -238 -218 -345 -40
-54 -67 -79 -104 -98 -49 -25 -66 -51 -58 -87 4 -20 -14 -42 -288 -354 -436
-498 -539 -643 -668 -947 -76 -178 -148 -391 -270 -797 -114 -381 -140 -462
-190 -592 -47 -123 -59 -214 -53 -397 5 -186 16 -246 102 -586 116 -457 132
-681 62 -892 -17 -54 -22 -89 -21 -168 2 -187 41 -341 127 -510 77 -151 179
-278 418 -520 l217 -220 11 -103 c27 -253 119 -487 279 -712 83 -117 311 -349
452 -460 151 -118 415 -291 640 -418 216 -123 237 -135 363 -221 214 -145 417
-194 972 -236 526 -40 713 -100 893 -288 88 -92 119 -167 196 -464 105 -403
162 -534 301 -682 49 -53 186 -151 210 -151 7 0 89 -51 181 -114 203 -136 345
-219 689 -401 535 -284 879 -430 1123 -475 59 -11 142 -31 186 -44 193 -61
395 -88 661 -87 230 0 376 14 815 77 l316 44 60 -24 c124 -50 362 -81 565 -73
228 9 415 58 719 187 139 59 150 62 249 67 65 4 124 1 160 -7 127 -28 233
-113 300 -241 179 -340 385 -577 946 -1086 248 -226 492 -473 577 -583 33 -45
71 -111 93 -165 38 -94 97 -213 126 -255 9 -14 45 -68 79 -120 90 -136 158
-223 392 -504 236 -283 332 -407 421 -548 34 -55 100 -156 146 -226 56 -85
127 -215 213 -392 188 -390 253 -514 327 -624 149 -226 348 -386 565 -457 65
-20 81 -21 319 -16 268 5 365 17 522 62 106 31 202 80 268 136 l47 41 0 100
c0 259 -58 483 -268 1038 -117 311 -173 479 -201 610 -23 110 -44 297 -39 355
l3 40 140 22 c77 12 298 45 490 72 332 47 364 50 625 55 468 9 847 61 1180
160 62 19 207 40 540 81 560 68 616 80 845 189 229 109 379 218 591 430 297
298 510 623 705 1078 146 340 278 830 305 1130 4 43 10 78 14 78 3 0 56 -7
116 -16 139 -21 523 -24 639 -5 306 49 518 150 666 316 20 22 80 108 135 190
54 83 168 242 253 355 85 113 209 277 276 365 363 483 534 812 621 1196 58
261 65 315 71 562 6 277 -2 397 -57 822 -22 165 -47 361 -55 435 -23 196 -30
512 -15 645 33 299 30 405 -15 579 -32 125 -65 210 -185 481 -116 261 -165
403 -174 505 -16 167 -57 312 -133 465 -71 141 -133 240 -307 484 -254 355
-319 467 -371 634 -25 81 -34 95 -113 185 -46 53 -186 205 -310 337 -258 275
-375 408 -477 546 -194 260 -317 531 -366 806 -35 200 -47 251 -80 328 -62
151 -177 295 -323 410 -115 89 -212 148 -495 297 -285 150 -411 231 -498 320
-96 96 -135 162 -162 272 -13 52 -40 91 -208 298 -383 470 -829 884 -1279
1185 -267 179 -1054 510 -1734 728 -722 232 -1347 376 -2275 524 -360 58 -412
62 -1015 71 -566 9 -654 15 -879 61 -58 12 -167 41 -241 65 -204 65 -283 76
-585 79 -143 1 -280 1 -305 -2z m630 -147 c52 -9 156 -36 230 -60 192 -63 474
-115 620 -116 l54 0 -119 -73 c-66 -40 -170 -106 -232 -145 l-112 -72 -98 0
c-399 0 -752 -127 -997 -359 -78 -74 -165 -192 -215 -292 -38 -74 -41 -78 -47
-52 -27 120 -60 198 -125 294 -51 77 -179 212 -270 285 -129 103 -343 230
-521 309 -49 22 -88 42 -88 45 0 4 30 12 68 19 37 7 234 48 437 91 617 131
763 151 1095 145 147 -2 258 -9 320 -19z m1801 -196 c253 -11 295 -16 744 -90
462 -76 752 -135 776 -156 11 -10 76 -28 161 -44 550 -107 1310 -413 1990
-802 987 -564 1639 -1193 1816 -1748 29 -91 57 -238 48 -247 -8 -9 -412 197
-549 279 -194 117 -334 224 -467 358 -132 133 -225 259 -306 415 -31 61 -62
113 -68 117 -39 26 -96 -7 -96 -54 0 -55 131 -286 240 -423 62 -78 226 -239
315 -311 193 -154 489 -326 845 -490 47 -21 93 -49 103 -61 13 -16 29 -23 55
-23 58 -1 96 -28 100 -70 4 -55 40 -167 83 -258 93 -202 235 -339 419 -407 63
-23 96 -29 199 -33 137 -5 219 6 343 45 60 18 81 30 91 49 l14 26 74 -65 c238
-208 395 -479 459 -793 25 -122 42 -344 33 -447 l-6 -77 -56 31 c-89 50 -193
123 -262 183 -37 32 -73 56 -86 56 -18 0 -31 16 -64 83 -248 494 -703 788
-1314 848 -179 17 -467 1 -651 -37 -30 -6 -39 3 -335 328 -540 592 -765 798
-1077 983 -59 36 -113 68 -120 72 -9 6 2 41 42 138 74 177 97 266 103 404 6
130 -5 198 -47 282 -94 193 -288 302 -710 403 -80 19 -307 65 -505 101 -443
81 -592 114 -743 164 l-117 39 75 1 c146 1 436 -19 1070 -75 91 -8 270 -17
397 -21 216 -6 234 -5 253 12 38 35 19 99 -33 109 -12 3 -110 7 -217 10 -107
3 -409 24 -671 46 -262 22 -566 43 -676 46 l-200 7 -6 121 c-7 141 -33 251
-79 337 -53 100 -115 139 -343 214 -323 107 -610 132 -1282 115 -392 -10 -856
0 -890 18 -24 14 294 203 427 253 132 50 277 58 701 39z m-3852 -137 c241 -89
500 -232 672 -371 188 -152 311 -335 334 -497 10 -72 28 -95 71 -95 29 0 35
-3 30 -16 -24 -63 -38 -209 -33 -349 6 -149 17 -222 58 -365 l21 -76 -68 -119
c-128 -225 -266 -531 -345 -765 -23 -69 -51 -138 -62 -155 -50 -73 -128 -154
-406 -414 -362 -340 -565 -548 -653 -672 -297 -414 -349 -907 -187 -1773 29
-156 60 -189 125 -132 l28 23 -32 179 c-63 359 -76 479 -76 739 0 189 3 260
17 334 37 195 119 396 220 540 75 106 259 301 492 520 448 420 513 485 573
573 18 26 50 99 72 162 190 552 504 1101 790 1386 83 83 157 140 262 204 58
35 40 116 -25 116 -65 0 -218 -111 -364 -263 -79 -83 -222 -261 -251 -314 -6
-10 -13 -16 -15 -13 -14 14 -40 179 -44 281 -25 543 322 938 917 1046 113 20
407 23 540 4 182 -25 526 -33 950 -23 591 14 833 -1 1109 -68 146 -36 319
-102 362 -137 62 -53 95 -159 106 -340 l6 -113 -40 0 c-22 0 -53 -5 -70 -10
-26 -10 -48 -3 -194 61 -309 134 -461 174 -659 173 -141 -1 -215 -15 -355 -69
-350 -135 -672 -441 -850 -810 -86 -178 -129 -332 -145 -520 -6 -70 -11 -92
-26 -102 -11 -8 -60 -40 -111 -73 l-92 -59 -55 78 c-87 125 -146 167 -329 237
-119 45 -214 96 -312 166 -84 61 -94 64 -125 48 -31 -17 -43 -48 -31 -78 24
-57 256 -197 432 -262 43 -16 95 -38 116 -49 47 -23 130 -110 167 -174 l28
-47 -41 -45 c-90 -97 -156 -219 -281 -515 -140 -330 -178 -397 -329 -574 -187
-219 -239 -300 -291 -454 -19 -56 -38 -101 -41 -100 -4 2 -25 26 -47 54 -86
109 -218 188 -507 304 -227 90 -363 157 -440 215 -78 59 -134 59 -149 -1 -10
-38 12 -65 107 -128 98 -65 197 -113 404 -195 285 -114 374 -163 462 -256 54
-57 114 -168 114 -214 1 -14 -16 -105 -36 -201 -71 -339 -113 -709 -124 -1091
-6 -203 -5 -220 12 -239 11 -12 31 -20 50 -20 58 0 62 13 69 245 15 498 76
935 191 1383 75 291 114 366 294 577 188 219 239 307 405 697 46 109 103 233
127 275 131 232 499 463 898 564 309 79 682 79 1031 2 503 -111 1016 -368
1520 -763 67 -52 132 -101 145 -108 50 -26 103 23 83 78 -9 27 -152 144 -329
271 -79 56 -104 79 -91 83 127 36 346 66 532 73 259 9 466 -20 696 -98 l121
-41 -1 -40 c0 -29 5 -44 19 -54 28 -20 65 -17 92 8 l24 22 52 -28 c102 -56
304 -196 407 -282 142 -119 425 -403 666 -669 424 -469 579 -623 810 -809 108
-87 268 -198 333 -230 57 -30 111 9 99 71 -2 10 -62 57 -139 108 -154 103
-311 229 -448 361 l-95 91 90 11 c466 60 892 -23 1217 -238 96 -63 246 -206
321 -304 110 -142 200 -332 246 -516 12 -47 26 -97 32 -113 18 -47 95 -50 116
-3 8 19 7 42 -8 103 -10 43 -18 79 -17 79 1 1 54 -33 117 -75 64 -42 201 -123
305 -180 394 -216 534 -309 646 -429 80 -84 111 -142 143 -263 40 -149 84
-249 235 -529 63 -117 104 -204 103 -217 -2 -15 9 -35 36 -61 46 -45 171 -287
236 -455 54 -140 82 -231 144 -478 35 -138 75 -261 135 -415 293 -753 434
-1334 477 -1954 5 -80 10 -170 10 -200 l0 -55 -61 110 c-141 255 -363 562
-563 779 -261 283 -594 502 -826 541 l-42 7 6 97 c3 53 8 245 12 426 l6 330
-26 98 c-93 360 -395 793 -647 927 -69 37 -104 36 -132 -2 -30 -40 -13 -69 65
-109 92 -48 264 -224 357 -363 135 -203 236 -441 248 -584 3 -37 0 -236 -6
-442 -10 -315 -14 -380 -28 -407 -15 -29 -15 -33 0 -57 15 -22 17 -57 17 -255
0 -223 6 -276 33 -293 19 -12 62 -9 82 6 17 12 18 30 16 255 l-2 242 28 -7
c457 -107 1042 -722 1400 -1471 62 -129 63 -134 63 -215 0 -193 -35 -524 -76
-721 -50 -239 -109 -379 -218 -515 -80 -101 -143 -206 -231 -382 -48 -97 -83
-152 -123 -194 -60 -66 -134 -164 -295 -391 -200 -282 -316 -391 -557 -522
-71 -39 -121 -61 -480 -212 -80 -34 -181 -81 -225 -106 -46 -27 -86 -43 -96
-40 -10 3 -20 1 -24 -5 -8 -13 -489 -13 -685 0 -368 26 -740 76 -1520 205
-1085 180 -1416 222 -1965 245 -771 34 -1459 -81 -2020 -338 -169 -77 -212
-91 -307 -98 -161 -12 -394 24 -947 146 -610 135 -795 167 -1031 179 -329 17
-521 -28 -670 -155 -30 -25 -73 -50 -103 -60 -78 -24 -260 -28 -584 -14 -402
18 -396 19 -815 -124 -596 -204 -1080 -378 -1643 -591 -303 -115 -313 -118
-435 -131 -151 -16 -441 -18 -565 -4 -126 14 -278 46 -382 80 -48 15 -124 33
-168 40 -144 22 -344 94 -650 237 -145 68 -640 323 -625 323 3 0 59 -7 125
-15 475 -60 894 -5 1261 165 48 22 93 40 101 40 28 0 300 -113 436 -181 166
-83 294 -162 447 -275 65 -48 123 -84 136 -84 28 0 64 36 64 64 0 24 -63 84
-166 158 -215 153 -439 275 -689 374 -82 32 -157 68 -166 78 -10 13 -28 19
-50 19 -35 -1 -324 94 -394 129 -113 57 -258 190 -330 302 -57 90 -104 197
-132 305 -20 78 -25 121 -26 231 -2 213 14 271 166 585 61 127 139 295 173
375 l62 145 113 6 c129 8 206 24 364 76 124 40 361 133 479 187 43 20 82 36
86 36 14 0 150 -191 203 -287 101 -180 187 -410 232 -618 23 -108 36 -127 83
-123 27 2 40 10 51 30 14 24 13 36 -8 130 -68 311 -208 625 -383 861 -28 37
-49 69 -47 71 18 17 338 168 380 180 96 26 157 30 569 30 358 1 413 3 470 19
105 29 242 102 447 239 105 70 194 128 198 128 3 0 28 -21 56 -47 105 -98 204
-262 249 -411 25 -82 50 -107 94 -96 59 15 59 81 -2 229 -53 127 -122 235
-210 327 l-74 77 39 24 c62 39 182 98 258 125 l70 26 560 1 c488 0 574 2 666
18 136 22 306 64 539 131 233 68 232 67 304 67 83 0 122 -16 263 -108 155
-101 243 -133 393 -140 239 -12 548 72 920 249 l145 69 -90 -83 c-158 -145
-175 -163 -175 -192 0 -14 9 -35 20 -46 36 -36 65 -26 148 53 96 91 403 366
674 605 113 100 208 185 210 190 1 5 57 56 123 114 252 222 546 541 740 803
258 348 502 780 639 1132 l28 71 62 -45 c135 -100 376 -189 672 -248 227 -46
317 -54 344 -30 24 22 26 67 4 89 -18 18 -29 21 -139 36 -383 54 -729 175
-848 298 l-39 40 51 157 c29 87 65 210 82 273 31 115 31 115 11 141 -24 32
-71 40 -94 14 -8 -10 -39 -101 -68 -203 -172 -608 -451 -1169 -835 -1678 -331
-440 -763 -850 -1210 -1149 -548 -366 -1128 -577 -1442 -524 -87 15 -164 51
-281 130 -109 74 -163 99 -244 112 -85 14 -159 1 -422 -75 -480 -139 -503
-141 -1151 -139 l-530 2 -38 43 c-50 57 -131 223 -157 323 -28 106 -37 293
-20 430 12 98 12 107 -5 125 -26 28 -80 27 -99 -2 -42 -66 -47 -421 -8 -570
36 -133 97 -266 167 -363 14 -20 12 -22 -53 -50 -118 -51 -221 -113 -487 -290
-143 -95 -296 -191 -340 -213 -158 -79 -140 -76 -620 -79 -236 -2 -448 -4
-470 -5 l-40 -3 -63 95 c-115 175 -227 417 -247 539 -13 75 -71 105 -116 60
-18 -18 -20 -29 -15 -70 17 -129 120 -365 244 -563 34 -54 62 -101 62 -105 0
-10 -471 -240 -628 -306 -184 -78 -385 -150 -500 -181 -123 -33 -350 -41 -507
-18 -216 31 -461 114 -687 231 -114 60 -130 65 -153 55 -32 -15 -45 -49 -32
-85 8 -23 35 -41 166 -106 237 -117 519 -209 698 -227 35 -4 63 -8 63 -10 0
-12 -120 -275 -207 -454 -114 -233 -145 -312 -169 -423 -89 -423 94 -895 438
-1128 68 -47 169 -95 282 -134 75 -27 78 -29 54 -41 -52 -27 -268 -93 -368
-113 -281 -54 -554 -51 -957 11 -133 20 -143 20 -167 5 -25 -17 -27 -16 -108
34 -46 29 -137 89 -203 134 -66 45 -151 97 -190 115 -101 48 -206 156 -267
275 -61 120 -87 195 -142 415 -100 396 -130 463 -265 593 -74 71 -186 150
-241 169 -13 5 -14 26 -8 154 25 522 99 811 259 1004 34 41 150 192 257 335
355 473 549 702 823 970 189 185 352 321 524 436 225 151 537 285 632 272 33
-4 47 -1 68 15 40 32 167 36 580 17 434 -19 857 -22 1005 -5 98 10 280 43 314
56 18 7 48 -49 100 -188 86 -230 89 -419 9 -555 -32 -55 -29 -102 10 -123 24
-13 30 -13 55 0 33 19 93 134 111 215 37 163 -2 392 -105 613 -19 42 -32 77
-29 80 2 2 40 19 85 38 109 44 264 127 394 210 133 86 144 92 179 99 16 3 32
16 39 30 12 27 57 56 177 115 242 119 559 195 901 216 191 11 243 31 476 184
211 139 326 188 529 226 134 25 483 26 665 1 260 -36 348 -66 520 -178 146
-94 270 -156 422 -210 122 -43 143 -46 170 -22 21 19 24 75 6 91 -7 6 -65 29
-128 52 -128 47 -284 123 -367 177 l-54 37 33 25 c174 136 377 336 482 476 86
113 176 265 287 480 148 288 341 718 341 763 1 52 -70 83 -105 45 -8 -10 -47
-91 -86 -180 -199 -458 -400 -845 -528 -1013 -118 -156 -309 -344 -476 -470
l-68 -52 -62 25 c-81 32 -213 62 -367 84 -174 24 -590 24 -705 0 -44 -9 -83
-17 -87 -17 -5 0 -8 15 -8 34 0 52 -28 204 -52 276 -26 83 -73 179 -123 255
-96 144 -357 375 -424 375 -33 0 -61 -27 -61 -59 0 -36 5 -41 100 -111 265
-196 403 -431 426 -728 l7 -82 -32 -11 c-74 -26 -195 -92 -323 -177 -217 -144
-248 -156 -438 -167 -324 -19 -620 -88 -884 -206 -61 -27 -111 -47 -112 -46
-1 1 3 34 8 72 14 98 4 274 -21 370 -28 107 -96 241 -178 350 -72 96 -298 328
-450 463 -102 90 -137 103 -167 60 -29 -42 -20 -64 57 -135 157 -146 416 -412
465 -478 64 -86 125 -208 147 -294 32 -126 30 -293 -7 -464 l-10 -49 -142 -94
c-282 -186 -519 -286 -795 -336 -169 -30 -567 -35 -1089 -13 -364 16 -574 15
-617 -2 -9 -3 -15 1 -15 8 0 27 -146 508 -240 789 -129 386 -179 593 -279
1156 -53 299 -72 370 -151 545 -88 198 -367 695 -408 727 -38 29 -102 -3 -102
-51 0 -13 21 -56 46 -97 145 -235 321 -568 383 -722 45 -114 57 -163 106 -443
98 -551 154 -781 290 -1190 57 -170 133 -410 168 -532 l64 -221 -36 -7 c-59
-11 -219 -74 -336 -132 -196 -98 -416 -249 -606 -416 l-86 -75 -72 38 c-160
84 -304 215 -592 536 -206 230 -266 283 -439 392 -243 152 -1149 652 -1181
652 -47 0 -79 -69 -49 -105 7 -8 80 -51 164 -96 276 -150 619 -341 800 -446
349 -204 380 -228 579 -453 302 -340 465 -489 644 -591 l41 -23 -111 -116
c-213 -221 -397 -441 -650 -775 l-135 -178 -139 2 c-559 8 -1006 82 -1243 207
-77 40 -210 152 -360 303 -237 237 -360 433 -360 570 0 38 18 97 76 248 179
465 233 687 206 858 -14 87 -127 484 -247 865 -48 151 -97 306 -109 344 -27
87 -62 119 -103 96 -41 -23 -49 -43 -37 -87 6 -21 59 -191 118 -378 126 -400
230 -754 246 -843 24 -132 -25 -358 -145 -672 -129 -338 -135 -355 -135 -429
0 -84 20 -154 72 -251 49 -93 111 -180 197 -278 l65 -75 -99 6 c-464 32 -958
358 -1202 794 -193 346 -235 802 -109 1186 29 87 92 234 124 287 5 8 56 111
112 228 92 190 102 215 92 237 -7 14 -23 30 -37 37 -50 23 -66 3 -166 -201
-51 -105 -98 -191 -104 -191 -50 0 -193 69 -395 190 -80 48 -163 96 -186 108
-74 38 -186 226 -234 393 -30 103 -38 302 -16 425 43 251 198 559 360 717 199
195 612 392 1136 542 102 29 199 56 216 59 l30 7 -57 -228 c-94 -371 -161
-700 -149 -723 12 -22 41 -40 63 -40 43 0 56 31 102 250 98 460 193 815 315
1175 241 707 520 1245 761 1469 139 128 245 158 585 161 262 3 286 9 331 76
14 21 38 84 55 141 40 139 80 216 151 294 148 161 360 254 827 362 362 84 767
146 1210 188 229 21 804 30 1000 15 439 -33 784 -126 969 -261 l43 -32 -224
-226 c-226 -229 -327 -343 -431 -484 -102 -139 -216 -339 -262 -460 -10 -27
-24 -48 -31 -48 -25 0 -350 169 -514 268 -170 101 -242 147 -585 367 -213 137
-484 301 -576 349 -63 33 -103 31 -121 -9 -18 -40 -2 -72 50 -101 184 -103
345 -202 607 -369 568 -363 759 -477 975 -577 69 -32 125 -61 125 -65 0 -5
-13 -57 -27 -118 -15 -60 -32 -148 -38 -195 -18 -144 -31 -689 -24 -1010 l7
-305 -62 77 c-227 282 -627 447 -1131 465 -203 7 -392 -8 -583 -48 -161 -33
-147 -37 -193 54 -61 119 -85 327 -65 562 6 72 23 231 37 354 l27 225 -27 23
c-34 29 -48 29 -80 1 -24 -22 -27 -36 -51 -238 -50 -433 -56 -573 -30 -740 15
-104 38 -177 79 -259 15 -29 26 -54 24 -56 -2 -1 -32 -15 -68 -31 -226 -98
-273 -157 -594 -756 l-47 -88 -137 108 c-308 240 -440 404 -493 610 -10 41
-19 94 -19 117 0 79 -70 125 -115 75 -23 -26 -22 -111 4 -212 64 -249 204
-429 534 -687 86 -68 157 -127 157 -132 0 -15 -87 -156 -151 -244 -56 -79
-164 -190 -226 -233 -214 -150 -603 -277 -1032 -336 -128 -18 -151 -31 -151
-82 0 -24 7 -38 24 -49 22 -15 35 -15 142 0 430 59 823 185 1056 338 208 135
331 299 583 777 199 377 306 546 376 596 224 160 719 253 1134 214 545 -52
919 -284 1054 -656 28 -77 29 -88 40 -374 6 -162 18 -434 27 -605 15 -310 15
-310 40 -332 32 -29 58 -29 85 -2 21 21 22 28 15 148 -17 326 -36 801 -47
1151 -14 465 -7 1433 11 1565 27 199 110 455 207 634 156 288 353 518 887
1031 174 167 319 314 322 326 11 45 -36 91 -79 78 -12 -4 -88 -71 -168 -150
l-146 -144 -87 58 -88 57 5 85 c10 172 70 379 162 559 57 111 148 251 164 251
5 0 21 20 35 44 32 55 226 251 336 339 99 79 267 195 327 226 63 32 73 104 17
130 -23 10 -33 8 -78 -15 -146 -76 -361 -239 -523 -398 -111 -107 -115 -107
-88 -1 89 347 493 710 908 816 45 12 90 28 100 37 47 42 -4 118 -72 106 -146
-26 -355 -117 -518 -226 -120 -80 -301 -252 -376 -356 -44 -62 -45 -63 -52
-35 -4 15 -10 117 -15 226 -6 155 -12 203 -24 222 -22 33 -59 42 -91 21 l-25
-16 6 -178 c7 -238 18 -314 53 -385 l28 -58 -23 -57 c-13 -31 -24 -66 -25 -77
0 -11 -9 21 -20 72 -10 50 -25 108 -31 129 -32 97 -146 66 -125 -34 4 -15 14
-61 23 -102 8 -41 19 -124 23 -184 7 -98 10 -111 31 -128 18 -14 33 -18 57
-13 23 4 33 2 33 -6 0 -7 -26 -51 -58 -98 -81 -119 -124 -198 -175 -326 -64
-160 -117 -376 -117 -476 l0 -35 -102 34 c-275 92 -605 133 -1078 133 -344 0
-539 -12 -959 -57 -61 -7 -64 -6 -57 12 46 120 51 149 50 299 0 142 -2 158
-40 299 -33 127 -43 152 -66 169 -23 17 -31 19 -53 9 -50 -23 -51 -46 -9 -208
63 -249 58 -389 -19 -544 l-32 -65 -165 -27 c-591 -98 -979 -206 -1199 -333
-214 -123 -326 -270 -396 -515 -15 -52 -31 -100 -36 -106 -7 -8 -85 -13 -242
-17 -204 -4 -245 -8 -340 -30 -59 -14 -134 -40 -166 -57 -195 -104 -387 -353
-593 -771 -167 -337 -312 -716 -463 -1206 -3 -8 -15 -11 -33 -7 -55 11 -483
-115 -757 -223 -328 -129 -575 -272 -726 -422 -184 -182 -347 -504 -395 -781
-23 -132 -15 -363 16 -475 25 -92 91 -237 143 -315 36 -53 36 -54 19 -83 -28
-50 -173 -197 -234 -238 -61 -42 -78 -72 -58 -109 19 -35 55 -43 98 -21 80 42
205 161 287 274 l20 28 170 -102 c193 -115 316 -179 393 -204 28 -10 52 -19
52 -20 0 -2 -13 -33 -29 -68 -44 -97 -97 -270 -116 -372 -23 -128 -30 -349
-16 -475 70 -622 473 -1130 1091 -1377 48 -19 70 -31 50 -28 -75 13 -223 61
-410 132 -528 202 -689 242 -865 213 l-70 -11 -210 213 c-241 244 -324 348
-400 503 -67 135 -95 238 -102 375 -5 94 -2 117 23 215 26 102 29 124 29 295
0 218 -7 261 -100 637 -92 369 -109 476 -102 638 6 136 21 209 63 304 14 31
81 241 149 466 185 614 244 781 355 1010 100 208 199 339 585 780 125 143 263
303 307 356 77 94 81 97 174 138 122 54 279 105 385 126 101 19 325 31 358 18
23 -9 21 -13 -79 -133 -179 -213 -447 -472 -713 -688 -65 -52 -77 -67 -77 -92
0 -34 30 -70 59 -70 61 0 535 429 772 698 368 420 626 860 791 1355 67 200 72
232 38 259 -57 46 -90 14 -135 -134 -99 -332 -272 -691 -475 -987 -58 -85 -64
-90 -89 -83 -14 4 -107 7 -206 6 -199 0 -304 -17 -471 -74 -48 -16 -89 -28
-91 -26 -2 2 16 35 40 72 24 38 70 116 101 173 122 225 414 530 781 816 152
119 482 339 716 478 156 93 215 122 285 143 105 30 214 85 308 156 38 28 177
161 310 294 133 133 268 261 301 285 33 24 119 74 190 110 72 36 200 103 285
147 293 152 542 241 1194 427 224 64 419 120 432 125 l24 10 -17 -33 c-13 -23
-18 -55 -18 -112 0 -70 5 -92 38 -169 20 -49 35 -91 34 -93 -5 -5 -215 -31
-467 -58 -433 -47 -624 -84 -885 -170 -450 -148 -838 -379 -1136 -675 -137
-135 -211 -232 -207 -268 4 -33 49 -66 76 -58 12 4 51 44 88 89 196 239 486
459 819 622 428 210 655 265 1445 350 406 44 622 96 857 206 219 102 444 275
614 472 67 76 73 104 32 136 -14 12 -24 23 -22 25 6 6 406 111 609 160 298 72
434 93 565 84 104 -7 483 7 495 18 9 10 75 -8 199 -53z m-2040 -349 c-130
-132 -268 -243 -391 -315 -127 -75 -348 -159 -480 -184 l-34 -6 -36 83 c-67
155 -64 189 22 282 33 35 60 69 60 75 0 13 17 17 165 30 157 14 362 52 599
111 105 26 197 48 205 49 8 1 -42 -56 -110 -125z m9402 -338 c308 -119 626
-258 841 -368 121 -61 322 -197 494 -333 351 -278 725 -659 1022 -1037 67 -87
87 -120 108 -184 42 -131 107 -225 228 -332 93 -83 199 -148 481 -296 313
-165 462 -262 571 -371 149 -149 209 -269 249 -500 41 -242 93 -404 192 -598
61 -119 59 -103 32 -307 -14 -103 -60 -290 -72 -290 -5 0 -31 12 -59 28 l-50
27 7 130 c12 240 -22 497 -91 696 -80 230 -190 404 -369 585 -250 253 -534
425 -1168 709 l-252 113 -8 90 c-53 629 -686 1339 -1778 1995 -154 93 -356
205 -504 281 -27 14 -47 25 -44 26 3 0 79 -29 170 -64z m-2896 -211 c119 -30
245 -78 500 -190 433 -190 526 -217 1199 -340 658 -120 892 -192 1034 -320
139 -125 159 -322 61 -600 -15 -45 -42 -111 -60 -148 -25 -54 -35 -67 -48 -61
-429 180 -907 202 -1466 68 l-110 -26 -95 56 c-367 219 -786 378 -1175 447
-170 30 -531 38 -702 15 -153 -20 -358 -72 -489 -124 -80 -32 -100 -36 -102
-24 -6 25 29 204 59 294 120 369 443 738 782 892 212 97 397 115 612 61z
m5374 -2401 c276 -123 600 -298 753 -406 l23 -16 -30 -12 c-112 -43 -310 -63
-418 -40 -133 27 -261 118 -346 245 -59 89 -139 285 -116 285 5 0 65 -25 134
-56z m1934 -1766 c89 -118 194 -237 451 -513 333 -356 393 -426 402 -460 4
-17 22 -68 40 -116 l34 -85 -14 -90 c-21 -142 -88 -330 -121 -341 -11 -3 -24
19 -155 272 -97 186 -128 260 -160 385 -56 218 -190 372 -483 555 -66 41 -123
75 -129 77 -5 2 2 42 17 93 14 50 34 136 43 192 9 57 18 103 19 103 1 0 26
-33 56 -72z m1268 -1698 c132 -181 217 -314 273 -427 141 -283 163 -512 66
-703 -43 -85 -212 -332 -220 -323 -25 27 -117 300 -160 473 -98 392 -187 623
-346 896 l-24 41 31 39 c42 53 94 164 121 260 l23 81 65 -96 c37 -53 114 -161
171 -241z m585 -1405 c180 -408 208 -502 209 -710 0 -77 -6 -191 -14 -254 -10
-83 -12 -180 -8 -355 6 -250 14 -338 72 -766 86 -639 87 -911 5 -1290 -38
-177 -61 -256 -112 -385 -115 -290 -261 -518 -683 -1070 -113 -148 -262 -355
-332 -458 -69 -103 -127 -186 -129 -184 -6 6 135 399 223 622 186 470 314 718
483 935 173 223 265 620 290 1248 10 265 -1 637 -26 882 -42 411 -143 861
-300 1328 -64 191 -73 225 -63 245 7 12 62 96 123 187 61 91 122 187 136 213
14 26 27 41 29 35 2 -7 46 -107 97 -223z m-22161 -1795 c61 -16 189 -59 285
-95 523 -200 623 -229 820 -244 l85 -6 -94 -63 c-119 -80 -149 -95 -373 -188
-100 -41 -191 -82 -200 -91 -38 -34 -9 -103 43 -103 32 0 320 115 442 176 90
46 203 122 387 261 l144 110 101 -90 c126 -114 162 -140 255 -187 93 -46 173
-74 315 -110 l110 -28 80 -113 c143 -205 209 -252 434 -308 69 -17 126 -33
127 -34 2 -2 -10 -44 -26 -93 -57 -179 -95 -422 -106 -691 -5 -100 -11 -153
-18 -153 -6 0 -36 7 -66 15 -84 22 -245 43 -465 60 -257 20 -379 32 -487 51
-197 33 -370 101 -491 193 -36 27 -147 95 -248 151 -458 257 -696 426 -929
660 -162 161 -242 268 -323 428 -81 159 -137 355 -137 478 0 42 1 43 38 47 69
8 187 -5 297 -33z m2660 -705 c77 -8 233 -18 348 -22 114 -3 207 -8 207 -11 0
-3 -33 -46 -73 -96 -40 -50 -83 -105 -95 -123 l-22 -31 -87 19 c-194 42 -264
72 -329 141 -46 49 -109 138 -97 138 4 0 71 -7 148 -15z m18542 -2477 c-28
-73 -91 -252 -141 -398 l-91 -265 -56 -27 c-142 -69 -354 -109 -589 -111 -165
-2 -350 10 -350 22 0 4 107 51 238 105 548 227 726 359 982 729 30 42 55 77
56 77 0 0 -22 -60 -49 -132z m-5592 -474 c404 -121 557 -202 913 -487 353
-283 764 -697 1004 -1012 62 -82 141 -205 135 -211 -3 -3 -70 -2 -149 2 l-143
7 -47 71 c-201 305 -642 748 -1043 1048 -388 290 -584 382 -1193 558 -100 29
-180 56 -176 59 9 9 325 19 444 14 87 -4 130 -12 255 -49z m325 21 c91 -8 220
-22 288 -29 141 -17 131 -12 347 -191 391 -324 870 -810 1125 -1140 120 -155
238 -340 226 -352 -3 -4 -52 -8 -108 -10 l-103 -5 -32 59 c-147 272 -687 844
-1134 1200 -296 237 -466 337 -731 429 -152 53 -153 53 -98 53 30 1 129 -6
220 -14z m-1015 -39 c77 -25 219 -68 315 -96 233 -69 402 -131 535 -196 463
-225 1170 -847 1505 -1325 l43 -61 -54 7 c-55 7 -231 43 -234 47 -1 2 -18 28
-38 59 -137 208 -561 615 -939 900 -263 197 -522 364 -693 445 -143 68 -459
150 -768 200 -59 9 -104 21 -100 25 8 7 198 35 258 38 17 1 93 -19 170 -43z
m1695 -41 c142 -19 136 -16 325 -159 440 -332 941 -818 1217 -1181 46 -61 158
-229 158 -238 0 -4 -242 -44 -305 -49 -28 -3 -34 3 -94 105 -223 373 -791 982
-1331 1427 -156 128 -150 123 -120 116 14 -3 81 -12 150 -21z m-1993 -30 c509
-93 666 -144 922 -299 498 -302 1109 -819 1364 -1154 64 -84 64 -85 7 -62 -77
30 -102 45 -174 100 -64 49 -86 55 -86 25 0 -22 105 -100 186 -140 172 -83
455 -135 746 -135 96 0 114 -3 183 -31 169 -67 445 -107 672 -96 68 3 123 3
123 1 0 -3 -26 -46 -57 -95 l-58 -90 -70 6 c-114 11 -234 34 -328 62 -63 19
-91 23 -98 16 -19 -19 -1 -32 81 -57 74 -24 184 -45 324 -63 l58 -8 -72 -95
c-111 -146 -103 -140 -181 -140 -163 0 -339 40 -608 140 -326 119 -438 150
-791 219 -426 83 -464 89 -478 78 -11 -8 -11 -12 0 -23 7 -6 148 -37 313 -68
387 -73 582 -121 780 -191 88 -31 216 -76 285 -101 161 -56 287 -84 422 -92
l107 -7 -57 -61 -57 -62 -140 14 c-666 63 -1136 184 -1610 414 -77 38 -143 66
-147 64 -25 -16 4 -40 111 -93 466 -234 1027 -381 1626 -427 50 -3 96 -10 103
-14 14 -7 -91 -109 -206 -201 -52 -41 -55 -42 -110 -36 -92 10 -303 55 -453
98 -176 49 -336 107 -581 210 -495 208 -576 241 -710 287 -160 55 -325 103
-438 127 -153 33 -285 53 -294 45 -23 -22 6 -37 108 -54 327 -53 641 -157
1183 -389 461 -199 707 -280 1048 -346 l140 -28 -124 -81 c-69 -45 -129 -82
-135 -82 -36 0 -538 83 -571 94 -110 39 -1033 403 -1190 471 -99 42 -265 123
-370 180 -104 56 -221 116 -260 133 -151 65 -310 97 -310 62 0 -10 19 -19 60
-28 109 -25 213 -63 317 -116 57 -29 186 -96 288 -148 102 -52 253 -124 337
-159 84 -34 151 -64 150 -65 -1 -1 -81 -14 -178 -28 l-177 -27 -63 35 c-229
126 -624 222 -1154 281 -373 41 -693 62 -1555 100 -195 9 -434 22 -529 29
l-175 13 -49 54 c-75 83 -158 202 -236 338 -75 131 -76 141 -18 141 53 0 183
31 315 76 73 24 137 42 141 40 19 -12 632 -109 1016 -160 706 -95 1260 -144
1723 -153 161 -3 291 -7 290 -8 -7 -7 -220 -47 -341 -65 -476 -70 -997 -86
-2144 -67 -498 9 -503 9 -503 -11 0 -19 10 -20 248 -28 136 -4 571 -8 967 -9
607 0 755 3 945 18 381 31 674 74 920 137 89 23 155 32 290 40 144 9 674 50
977 75 49 5 73 11 77 21 12 32 11 32 -639 -21 -478 -39 -713 -48 -1025 -42
-499 11 -1149 70 -1900 173 -252 34 -802 121 -829 130 -12 4 129 80 497 266
94 49 116 68 93 82 -14 9 -67 -16 -311 -145 -442 -232 -641 -300 -933 -315
l-123 -7 -17 26 c-9 14 -113 112 -232 217 -118 105 -215 192 -215 193 0 1 152
0 337 -1 191 -2 408 1 498 7 390 28 784 94 1024 173 58 19 78 20 245 14 419
-15 607 -31 1396 -116 644 -70 904 -89 1225 -93 165 -2 190 0 193 14 4 24
-409 376 -662 564 -345 255 -699 445 -1010 541 -50 16 -55 20 -35 25 50 14
116 8 356 -36z m-3147 0 c160 -25 337 -60 644 -127 219 -49 274 -64 255 -71
-33 -12 -343 7 -614 38 -558 65 -738 84 -841 90 l-110 7 4 29 c4 25 10 29 56
38 28 6 60 13 71 15 45 11 435 -3 535 -19z m2839 -40 c343 -115 635 -275 1001
-549 121 -90 411 -328 530 -435 l45 -40 -125 0 -125 -1 -30 42 c-149 211 -448
422 -796 562 -331 133 -657 206 -1084 245 l-180 16 125 52 c104 43 350 127
425 146 47 11 87 4 214 -38z m3021 -46 l425 -70 70 -54 c153 -117 331 -322
472 -545 151 -238 363 -685 337 -710 -11 -11 -232 -70 -259 -70 -14 1 -41 33
-93 113 -242 372 -812 946 -1313 1322 -131 99 -129 96 -94 90 17 -3 221 -37
455 -76z m-6280 -40 c63 -5 286 -30 495 -54 437 -51 603 -65 762 -65 100 0
115 2 133 20 l21 21 147 -30 c81 -16 170 -33 197 -38 l50 -8 -170 -62 c-228
-82 -289 -100 -415 -123 -467 -84 -1019 -23 -1408 155 l-84 39 7 65 c3 36 8
74 11 83 6 19 4 19 254 -3z m7016 -79 c180 -28 504 -71 664 -87 l74 -8 18 -58
c33 -110 49 -232 55 -417 8 -261 -17 -448 -78 -590 -17 -39 -30 -54 -57 -65
-19 -8 -40 -15 -46 -15 -7 0 -31 50 -55 111 -48 123 -163 359 -238 489 -151
260 -330 486 -497 628 -27 23 -44 42 -39 42 5 0 95 -13 199 -30z m-7419 -167
c-1 -196 10 -282 53 -410 l27 -82 -61 23 c-128 46 -224 130 -278 244 -27 56
-30 71 -27 140 4 89 29 138 95 188 32 25 150 73 180 74 8 0 11 -52 11 -177z
m-474 157 l147 0 -29 -41 c-153 -211 -25 -541 262 -678 78 -37 189 -71 234
-71 13 0 31 -13 44 -32 38 -55 167 -184 304 -306 206 -182 255 -233 255 -261
0 -14 -19 -93 -42 -176 -37 -131 -43 -163 -43 -252 0 -90 3 -105 22 -130 25
-31 124 -205 172 -300 56 -113 101 -259 100 -328 0 -26 -3 -22 -24 28 -52 126
-295 390 -680 740 -528 479 -760 741 -898 1013 l-25 50 19 69 c24 87 25 221 3
296 -24 79 -67 160 -151 283 l-75 109 129 -6 c70 -4 194 -7 276 -7z m-471
-120 c37 -52 67 -99 68 -105 0 -5 -35 -23 -78 -39 -42 -16 -158 -64 -257 -107
-103 -45 -212 -85 -255 -94 -41 -9 -133 -31 -203 -50 -70 -19 -130 -35 -133
-35 -3 0 61 72 142 161 234 255 345 329 539 359 100 16 102 15 177 -90z m4093
69 c437 -43 877 -163 1198 -326 239 -122 463 -297 567 -443 l21 -29 -33 4
c-18 3 -85 7 -149 11 l-116 6 -41 62 c-166 253 -544 434 -1150 551 -139 26
-540 85 -724 106 -60 7 -108 15 -108 19 0 3 30 11 66 18 36 7 78 19 93 28 28
16 169 13 376 -7z m-663 -39 c31 0 38 -3 38 -20 0 -11 4 -20 8 -20 26 0 582
-75 707 -95 610 -99 991 -236 1207 -434 60 -55 134 -148 125 -157 -8 -8 -176
8 -772 72 -550 59 -898 88 -1175 100 -132 5 -169 9 -150 17 160 64 402 206
408 240 6 28 -28 20 -88 -22 -328 -230 -901 -378 -1625 -421 -200 -12 -531
-12 -697 -1 -132 9 -122 3 -199 114 -44 63 -94 165 -86 173 3 3 72 -13 154
-35 453 -123 621 -151 903 -151 253 0 426 30 687 121 151 52 382 163 489 235
141 93 243 204 189 204 -9 0 -41 -25 -72 -55 -165 -163 -549 -344 -887 -419
-171 -38 -301 -50 -481 -43 -243 10 -366 32 -772 139 l-232 61 -11 51 c-24
108 -29 101 47 63 269 -136 625 -207 958 -194 272 12 432 49 744 174 117 47
297 112 398 145 147 48 183 64 181 77 -3 11 -12 15 -33 13 -45 -5 -366 -114
-505 -172 -191 -79 -363 -136 -484 -159 -411 -80 -892 -19 -1246 157 l-75 37
-8 50 c-6 43 -2 135 7 135 2 0 37 -15 77 -33 386 -176 954 -233 1437 -147 94
17 281 77 547 174 91 34 106 36 174 31 41 -3 91 -5 113 -5z m6336 -24 c180 1
222 -1 222 -12 0 -22 -30 -238 -37 -258 -5 -17 -14 -18 -147 -13 -176 7 -263
28 -412 103 l-112 56 -16 64 c-9 35 -16 66 -16 69 0 4 66 3 148 -2 81 -4 247
-7 370 -7z m-10550 -158 c-185 -197 -230 -242 -303 -296 -90 -66 -122 -79
-237 -96 -157 -24 -215 -21 -321 14 -112 38 -214 90 -195 101 25 14 1168 423
1196 428 2 1 -61 -68 -140 -151z m10344 -139 c55 -16 111 -23 226 -26 l154 -5
-7 -37 c-3 -20 -13 -67 -22 -105 l-15 -69 -162 6 c-150 6 -302 25 -387 47
l-36 10 -6 118 c-4 64 -10 132 -13 151 l-7 33 101 -51 c55 -28 134 -60 174
-72z m-9397 9 c15 -52 21 -198 8 -198 -4 0 -18 11 -32 24 -41 39 -141 95 -200
113 l-54 15 34 15 c42 19 211 82 221 83 4 0 14 -23 23 -52z m9290 -264 c44 -9
159 -18 256 -21 l176 -6 -14 -51 c-23 -81 -75 -249 -84 -274 l-9 -23 -42 36
c-79 67 -193 105 -362 121 l-78 7 6 36 c3 20 6 74 6 120 l0 84 33 -7 c17 -4
68 -14 112 -22z m7 -275 c127 -17 227 -63 273 -124 l27 -34 -62 -148 c-34 -81
-63 -150 -66 -152 -2 -2 -21 12 -43 32 -70 63 -202 118 -342 141 l-36 6 23 58
c13 32 31 100 41 150 l18 92 50 -6 c28 -3 80 -9 117 -15z m-490 -449 c-47 -85
-77 -126 -93 -133 -13 -5 -125 -7 -254 -4 -240 6 -333 17 -460 59 l-70 23 45
3 c261 15 709 101 861 165 19 8 35 13 37 12 1 -1 -28 -58 -66 -125z m360 100
c100 -24 176 -61 234 -113 l47 -43 -38 -74 c-21 -41 -55 -106 -77 -143 -36
-62 -41 -67 -56 -54 -38 34 -107 58 -248 87 -206 42 -189 32 -153 93 16 29 57
102 90 164 69 128 48 120 201 83z m-7344 -107 c64 -141 193 -336 310 -467 435
-486 1094 -709 2017 -682 405 12 1015 76 1420 151 72 13 225 38 341 55 l211
31 363 -141 c200 -77 365 -141 366 -143 1 -1 -79 -3 -179 -4 -190 -1 -223 -6
-447 -66 -249 -66 -570 -80 -1525 -67 -692 10 -817 15 -1090 46 -849 95 -1406
402 -1799 994 -108 163 -156 254 -156 300 l0 40 73 0 73 0 22 -47z m-46 -322
c240 -355 537 -610 898 -772 343 -153 726 -233 1290 -269 91 -6 489 -14 885
-17 905 -7 1142 5 1395 74 52 14 120 32 150 40 87 24 396 29 565 9 185 -21
545 -78 545 -86 0 -10 -221 -114 -330 -155 l-95 -36 -295 -10 c-162 -5 -403
-15 -535 -23 -870 -54 -1131 -49 -2035 39 -562 55 -688 65 -975 76 l-270 11
-161 78 c-318 153 -631 353 -899 573 -122 100 -307 273 -327 305 -27 44 -22
106 23 269 l33 122 43 -77 c24 -42 67 -110 95 -151z m7203 54 c157 -31 247
-59 271 -86 17 -19 17 -21 -1 -52 -32 -56 -167 -247 -175 -247 -4 0 -13 14
-20 30 -21 51 -107 118 -217 171 -56 27 -107 49 -114 49 -14 0 -13 2 45 93 35
54 54 76 65 72 9 -2 75 -16 146 -30z m-160 -226 c55 -26 117 -62 138 -79 46
-39 81 -104 73 -135 -3 -12 -58 -77 -122 -144 l-116 -121 -39 80 c-43 90 -111
169 -179 208 -25 14 -46 26 -48 28 -2 1 34 51 79 112 59 77 88 108 98 105 9
-3 61 -27 116 -54z m-6423 -92 c308 -171 770 -330 1193 -411 244 -47 558 -85
700 -86 49 0 65 -3 55 -10 -20 -13 -555 -13 -700 1 -378 34 -661 108 -935 244
-160 80 -298 172 -398 267 -77 74 -55 73 85 -5z m628 18 c1211 -55 1675 -101
2119 -210 186 -46 451 -143 451 -165 0 -3 -37 -12 -82 -18 -46 -6 -175 -25
-288 -42 -473 -70 -974 -60 -1518 30 -433 73 -889 219 -1227 394 -81 42 -86
46 -50 41 22 -3 290 -16 595 -30z m5532 -156 c64 -42 121 -108 157 -183 48
-104 50 -97 -26 -159 l-67 -55 -27 47 c-37 65 -108 141 -174 186 -30 21 -55
40 -55 42 0 10 126 152 134 153 5 0 31 -14 58 -31z m-6611 -260 c197 -153 500
-346 699 -445 52 -25 58 -32 98 -115 99 -199 345 -583 587 -915 176 -241 381
-501 410 -520 26 -17 55 -12 80 12 32 32 17 63 -93 202 -293 370 -530 707
-729 1037 -56 93 -101 170 -100 172 2 1 68 -25 147 -58 321 -134 819 -285
1215 -369 55 -12 107 -23 116 -26 13 -4 17 -28 22 -142 11 -234 65 -447 208
-826 228 -600 278 -771 296 -1025 6 -91 5 -94 -18 -113 -125 -99 -404 -158
-750 -158 -136 0 -176 3 -220 19 -260 89 -457 295 -638 666 -258 527 -316 640
-372 724 -35 52 -96 146 -135 209 -99 160 -217 316 -465 612 -226 271 -311
381 -404 523 l-57 88 11 63 c25 142 7 311 -48 455 -23 62 -40 70 140 -70z
m6459 52 c69 -52 116 -105 155 -173 l23 -41 -36 -27 c-20 -14 -58 -38 -83 -53
l-45 -27 -40 41 c-21 22 -76 70 -121 107 -46 36 -83 68 -83 71 0 10 144 151
155 151 5 0 39 -22 75 -49z m-51 -315 c14 -14 23 -28 20 -30 -2 -2 -35 -19
-74 -39 -93 -46 -216 -90 -226 -80 -4 4 -35 46 -68 92 l-60 83 52 41 c29 22
72 58 96 78 l43 38 97 -78 c53 -43 107 -90 120 -105z m-385 -82 c31 -42 56
-80 56 -84 0 -5 -23 -13 -51 -19 -55 -12 -451 -63 -455 -58 -1 1 34 21 79 45
45 24 132 76 192 117 61 40 113 74 117 74 4 1 32 -33 62 -75z m-4342 -189
c101 -9 368 -33 593 -55 695 -67 667 -65 1185 -64 382 0 557 5 824 22 187 12
354 22 370 21 17 0 -192 -29 -464 -64 -272 -34 -525 -67 -562 -73 -174 -27
-910 35 -1628 138 -598 86 -677 105 -318 75z m361 -214 c155 -22 388 -51 517
-66 364 -39 352 -34 145 -67 l-180 -29 -205 45 c-293 65 -722 182 -592 162 17
-3 159 -23 315 -45z"/>
<path d="M14496 17029 c-31 -24 -35 -68 -8 -91 9 -9 76 -50 147 -93 566 -339
974 -685 1144 -973 56 -94 81 -172 81 -253 0 -63 -4 -76 -61 -189 -99 -198
-189 -274 -297 -249 -64 14 -100 35 -267 154 -167 119 -218 148 -302 171 -94
25 -412 29 -772 10 -173 -9 -346 -14 -385 -11 -164 15 -242 58 -266 145 -30
109 12 353 110 633 23 69 38 127 35 138 -17 53 -94 60 -119 10 -24 -46 -96
-272 -129 -401 -27 -110 -31 -142 -32 -265 0 -126 2 -145 24 -192 30 -68 102
-134 174 -161 111 -42 207 -46 625 -26 307 14 416 16 545 7 186 -12 219 -23
354 -120 231 -167 294 -204 386 -223 142 -29 271 47 381 223 57 92 113 219
126 287 52 275 -250 678 -815 1087 -209 151 -609 403 -640 403 -7 0 -24 -9
-39 -21z"/>
<path d="M16960 15759 c-207 -21 -450 -91 -720 -207 -121 -53 -158 -73 -170
-95 -13 -24 -13 -30 0 -54 26 -46 60 -41 221 28 516 221 873 257 1327 133 53
-14 119 -37 147 -51 245 -125 517 -538 752 -1143 35 -91 69 -170 76 -176 25
-24 53 -25 82 -3 23 19 26 28 22 58 -8 63 -135 369 -242 586 -231 467 -466
744 -702 826 -242 83 -556 122 -793 98z"/>
<path d="M14220 15214 c-357 -48 -785 -245 -1128 -522 -152 -122 -191 -183
-144 -225 38 -35 69 -22 162 66 101 97 322 248 490 335 305 159 616 240 813
213 98 -14 162 -36 290 -103 144 -76 237 -140 335 -232 190 -180 277 -371 302
-661 10 -120 7 -215 -21 -609 l-12 -169 27 -24 c34 -29 48 -29 80 0 24 21 25
30 40 237 33 461 31 596 -14 788 -66 281 -229 504 -500 683 -101 67 -341 185
-415 205 -61 15 -242 26 -305 18z"/>
<path d="M20333 14979 c-39 -14 -43 -39 -43 -251 0 -313 20 -391 124 -481 31
-26 86 -87 123 -135 204 -265 259 -322 314 -322 34 0 59 29 59 67 0 24 -10 38
-46 68 -25 20 -98 105 -162 189 -64 83 -145 178 -179 212 -95 92 -96 98 -101
379 -3 193 -7 243 -19 257 -19 21 -43 27 -70 17z"/>
<path d="M19985 14378 c-48 -27 -48 -76 -1 -114 l34 -28 -23 -18 c-33 -26 -38
-49 -20 -91 32 -76 37 -171 24 -437 -7 -140 -13 -256 -14 -258 -2 -2 -94 49
-206 113 -112 63 -215 118 -228 122 -29 7 -51 -5 -71 -40 -13 -24 -13 -28 5
-52 11 -15 112 -78 225 -142 938 -527 1189 -751 1193 -1063 2 -149 -29 -233
-183 -495 -147 -250 -180 -339 -180 -483 0 -106 27 -191 91 -287 68 -102 98
-116 144 -70 14 13 25 30 25 38 0 7 -22 46 -49 87 -60 93 -81 152 -81 234 0
108 45 220 175 437 81 134 150 277 171 354 10 39 17 117 20 225 3 129 9 192
31 295 34 161 37 307 9 405 -87 302 -505 841 -916 1181 -107 89 -142 106 -175
87z m369 -449 c228 -235 435 -508 531 -699 79 -156 95 -254 70 -405 -9 -55
-19 -102 -22 -105 -2 -3 -14 9 -25 25 -42 61 -226 233 -331 309 -59 43 -185
127 -280 186 l-172 108 1 123 c1 68 3 228 5 354 4 223 1 255 -28 333 -11 28
105 -78 251 -229z"/>
<path d="M18604 13525 c-26 -39 -12 -78 103 -303 257 -503 291 -572 316 -650
40 -122 44 -185 17 -266 -45 -137 -513 -1037 -603 -1162 -49 -67 -168 -172
-204 -179 -13 -3 -34 -7 -48 -10 -14 -3 -31 -16 -37 -29 -10 -24 -105 -73
-268 -141 -170 -71 -260 -129 -296 -192 -14 -23 -53 -126 -88 -230 -89 -263
-139 -398 -207 -548 -165 -369 -308 -562 -567 -762 -69 -54 -194 -163 -276
-242 -177 -169 -241 -222 -396 -328 -102 -69 -115 -82 -118 -110 -4 -37 26
-73 59 -73 24 0 197 113 304 198 39 31 131 115 205 187 75 72 213 193 307 268
219 175 310 277 443 497 119 196 221 436 361 842 45 132 89 243 101 255 24 26
133 80 357 178 l153 68 160 -159 c398 -396 634 -716 772 -1045 170 -408 248
-887 232 -1434 -3 -121 -11 -269 -16 -330 -9 -100 -8 -112 9 -135 23 -31 61
-37 90 -13 19 16 24 34 33 128 16 161 16 774 0 915 -33 283 -81 509 -157 733
-34 102 -39 127 -26 123 299 -93 755 -85 1190 19 119 29 112 31 173 -58 136
-200 238 -513 369 -1126 76 -355 88 -391 133 -391 35 0 66 28 66 59 0 36 -108
550 -161 761 -78 317 -185 595 -291 758 -22 34 -39 64 -37 65 2 2 56 23 119
46 143 53 385 170 428 206 20 16 32 36 32 51 0 28 -32 64 -57 64 -10 0 -90
-36 -178 -79 -188 -94 -402 -175 -460 -174 -23 0 -51 -7 -65 -17 -54 -38 -355
-94 -603 -112 -266 -19 -507 9 -697 81 -54 20 -56 23 -99 106 -124 244 -420
616 -734 922 l-115 112 27 17 c48 31 163 148 201 205 85 123 524 966 579 1109
18 47 36 94 41 106 6 14 48 37 146 78 77 32 145 65 152 74 30 39 2 102 -47
102 -12 0 -72 -20 -132 -45 -61 -25 -111 -45 -113 -45 -2 0 -6 17 -9 38 -18
110 -83 257 -267 602 -71 135 -144 279 -161 320 -45 109 -53 120 -94 120 -26
0 -39 -6 -51 -25z"/>
<path d="M22352 8944 c-14 -9 -67 -105 -131 -237 -168 -347 -281 -511 -438
-638 -106 -85 -173 -127 -424 -267 -272 -151 -348 -200 -430 -282 -111 -111
-148 -219 -115 -332 31 -107 106 -196 367 -440 84 -78 143 -141 154 -165 9
-21 24 -44 33 -50 23 -19 66 -16 85 5 47 51 1 134 -156 282 -292 274 -350 343
-362 425 -9 56 25 123 96 191 77 72 146 116 403 258 233 129 308 176 408 254
l57 44 68 -37 c100 -54 195 -129 344 -269 132 -125 160 -142 195 -118 22 14
34 50 25 74 -23 60 -345 340 -476 413 -27 16 -52 30 -54 31 -2 2 19 31 47 66
80 101 155 224 230 373 107 213 172 356 172 376 0 18 -44 59 -64 59 -6 0 -22
-7 -34 -16z"/>
<path d="M18115 8177 c-200 -85 -497 -236 -790 -403 -325 -186 -543 -296 -661
-334 -213 -70 -399 -44 -1149 161 -608 167 -630 170 -975 149 -534 -33 -817
-68 -1142 -143 -170 -40 -303 -50 -556 -44 -164 4 -293 13 -467 35 -358 45
-353 45 -441 27 -177 -37 -356 -119 -634 -293 -287 -179 -430 -244 -635 -288
-102 -22 -379 -22 -660 0 -381 29 -455 31 -516 11 -135 -43 -449 -237 -794
-489 -176 -129 -195 -147 -195 -182 0 -30 33 -64 61 -64 11 0 93 53 182 118
351 258 661 453 772 488 47 15 70 15 296 0 477 -33 585 -38 694 -31 292 17
495 93 855 320 312 196 523 285 678 285 42 0 183 -14 312 -31 190 -24 286 -31
500 -36 304 -6 404 3 646 61 283 67 856 127 1244 130 192 1 212 -3 720 -144
637 -177 909 -227 1093 -201 167 23 352 106 791 355 l258 146 30 -25 c16 -14
84 -76 151 -139 171 -160 335 -299 607 -514 565 -447 823 -662 919 -766 45
-48 121 -26 121 36 0 51 -264 285 -770 683 -168 132 -376 299 -463 371 -147
123 -428 374 -457 408 -11 14 9 26 148 95 88 43 218 102 289 130 136 56 178
87 167 124 -7 27 -41 57 -63 57 -9 0 -83 -29 -166 -63z"/>
<path d="M14459 4969 c-7 -4 -9 -13 -6 -21 3 -10 59 -25 174 -47 597 -116 958
-170 1418 -213 185 -17 868 -17 1025 0 341 38 690 107 690 137 0 25 -17 25
-122 1 -252 -59 -500 -92 -824 -108 -572 -28 -1243 42 -2201 231 -78 15 -148
24 -154 20z"/>
<path d="M14520 4690 c0 -11 2 -20 5 -20 3 0 45 -9 94 -20 117 -26 354 -65
511 -84 383 -47 678 -57 1728 -60 908 -2 952 -1 952 16 0 10 -1 19 -2 19 -2 1
-469 5 -1038 9 -811 6 -1081 11 -1250 24 -349 27 -567 55 -823 106 -175 36
-177 36 -177 10z"/>
</g>
</svg>
